<svg width="113" height="27" viewBox="0 0 113 27" fill="none" xmlns="http://www.w3.org/2000/svg">
<path d="M56.1377 1.70663C55.9303 1.06937 55.0266 0.935992 54.3895 0.906351C50.0486 0.772971 45.9595 0.787791 41.6482 0.950812C41.3075 0.980452 40.9816 1.03973 40.6852 1.15829C39.7519 1.46951 39.5741 2.5662 38.9074 2.31426C35.4258 0.28391 30.3589 0.935992 26.5069 0.59513C25.0253 0.60995 23.0252 0.180169 22.4178 1.91412C21.5141 3.85554 20.9066 7.57537 19.8547 9.33896C19.5584 9.50198 19.2918 8.22746 19.0399 7.32343C18.8028 6.43423 18.5658 5.54503 18.3139 4.65582C17.7509 2.43282 17.5287 0.654411 14.773 0.876711C13.2915 0.876711 11.5285 0.802611 10.3877 1.94376C7.69126 4.59654 4.77262 7.48645 2.04658 10.2133C-0.0868426 12.4215 3.08366 12.14 4.78744 12.0807C6.35787 12.0807 7.38014 10.8506 8.86168 10.5987C10.4321 10.4801 12.4915 10.1985 13.7952 11.0877C14.3138 11.4434 14.8471 11.8287 15.4842 11.9325C18.1065 12.1548 20.7733 12.051 23.4993 11.7694C25.1439 11.5323 25.2179 9.665 26.1661 8.58314C26.6106 8.1089 27.2476 7.8866 27.9143 7.8866C32.0034 7.84214 29.87 11.147 32.4479 11.8287C34.4628 12.0214 37.574 12.9254 37.1444 9.70946C37.0851 8.73134 36.7147 7.53091 37.4999 6.74545C38.137 6.13783 39.0111 5.61913 39.3667 4.7892C39.7371 3.94446 40.2852 3.7518 41.1001 3.81108C42.1372 3.76662 43.5743 3.9 43.5002 5.26345C43.7224 6.95293 40.2556 11.6805 42.8483 12.0807C44.1669 12.1251 45.7966 12.3326 46.9225 11.5471C48.4337 9.87248 48.656 7.32343 49.693 5.32273C50.6709 2.21052 55.9155 5.32273 56.1674 1.88447L56.1377 1.73627V1.70663ZM13.3359 6.96775C13.2619 7.13077 13.2026 7.29379 13.1285 7.45681C12.9656 7.76803 12.6989 7.90142 12.3285 7.87178C12.1803 7.87178 12.0322 7.87178 11.8988 7.82732C11.5581 7.7384 11.3062 7.30861 11.4544 6.99739C11.5877 6.70099 11.7359 6.41941 12.0174 6.22675C12.5655 5.87107 12.7878 5.90071 13.2174 6.40459C13.3656 6.58243 13.4397 6.74545 13.3359 6.96775ZM32.3886 5.20417C31.9293 5.47093 31.1886 5.54503 30.6256 5.50057C29.7515 5.53021 28.9514 5.64877 28.1366 5.24863C27.2773 4.80402 27.7662 3.44058 28.6255 3.3813C29.2033 3.20346 29.8848 3.2331 30.4478 3.33684C31.07 3.36648 31.8108 3.3813 32.359 3.6777C32.8331 4.00374 33.0108 4.74474 32.5071 5.14489L32.4034 5.20417H32.3886Z" fill="black"/>
<path d="M74.3607 1.09901C72.3162 0.861891 69.3679 0.120889 68.479 2.52174C67.9457 3.92964 66.6419 4.59654 65.2048 4.50762C64.4048 4.53726 63.2788 4.46316 62.9232 3.6777C62.538 2.92188 63.1751 1.81037 62.7306 1.21757C62.3602 0.698871 61.6047 0.684051 61.012 0.654411C59.6046 0.654411 57.7378 0.47657 57.1304 2.0475C56.1377 5.01151 55.1896 7.93105 54.271 10.9247C54.1525 12.4363 56.1674 12.051 57.2045 12.1103C61.2787 12.466 59.5305 8.76098 62.1825 7.61983C63.3084 7.36789 65.4419 7.04185 65.7974 8.49422C65.99 9.38342 65.2048 10.6431 65.7085 11.31C66.4345 12.1399 68.0049 11.7546 69.0568 11.7991C70.3902 11.8584 71.2939 11.1618 71.7088 9.9614C72.6125 7.79767 73.6052 5.54503 74.4941 3.4554C74.7756 2.7885 75.3089 1.63253 74.4941 1.20275L74.3459 1.14347L74.3607 1.09901Z" fill="black"/>
<path d="M94.0653 1.35095C93.7542 0.50621 92.2726 0.654411 91.4429 0.62477C90.4355 0.62477 89.354 0.55067 88.7021 1.15829C87.5909 2.43282 87.2798 4.30014 86.5983 5.84143C86.139 7.16041 85.4723 8.46458 84.1982 8.89436C82.8648 9.47234 80.4647 9.17594 80.6721 7.27897C81.5759 2.80332 85.1316 -0.471913 77.6201 0.906351C76.509 1.36577 76.2275 2.81814 75.7534 3.91482C72.8348 10.2282 74.9089 11.6361 81.324 11.9473C90.1244 12.1548 92.1837 9.665 94.1097 1.46951L94.0801 1.33613L94.0653 1.35095Z" fill="black"/>
<path d="M111.962 2.61066C111.429 1.91411 110.51 1.54361 109.651 1.33613C106.451 0.698871 102.495 0.713691 99.3544 0.56549C98.0358 0.654411 96.2876 0.120889 95.4727 1.41023C94.2579 4.09266 93.6208 7.17523 92.5837 10.1096C92.2578 10.9395 92.4356 11.9621 93.4875 11.9621C100.362 12.6142 96.4802 7.59019 101.369 7.90142C102.451 8.00516 103.443 8.53868 103.68 9.60572C103.843 10.1985 103.888 10.9543 104.332 11.3693C105.577 12.2437 107.488 12.0214 108.984 12.0214C110.125 11.8287 110.14 10.4356 110.051 9.50198C109.873 8.37566 109.651 6.98257 110.836 6.34531C112.036 5.64877 113.059 4.06302 112.081 2.74404L111.977 2.59584L111.962 2.61066ZM105.251 5.20417C104.792 5.47093 104.051 5.54503 103.488 5.50057C102.614 5.53021 101.814 5.64877 100.999 5.24863C100.14 4.80403 100.629 3.44058 101.488 3.3813C102.066 3.20346 102.747 3.2331 103.31 3.33684C103.932 3.36648 104.673 3.3813 105.221 3.6777C105.695 4.00374 105.873 4.74474 105.369 5.14489L105.266 5.20417H105.251Z" fill="black"/>
<path d="M33.8392 15.7116C33.5281 14.8372 32.2095 14.9854 31.4243 14.9261C27.3945 14.8372 23.6906 14.8668 19.6904 14.9706C19.2164 15.0002 18.7274 15.015 18.283 15.1484C17.2311 15.4893 17.2015 16.7342 16.194 15.9487C12.8309 14.1258 4.88982 13.5034 2.16378 16.9861C0.904466 18.9275 3.00826 20.5429 4.75648 21.0913C6.25284 21.5062 8.10477 21.0913 9.39371 22.099C10.5197 23.7292 7.1714 23.744 6.29729 23.1957C5.48244 22.7511 4.93427 22.0101 4.03052 22.1287C2.87492 22.3954 1.17114 22.0546 0.222954 22.8104C-0.503002 23.6551 0.711864 24.737 1.46745 25.1075C4.40091 26.4709 7.76401 26.1597 10.979 25.8337C15.1569 25.6114 19.2608 22.4102 13.9865 19.6389C12.0012 18.5867 14.3273 18.2162 15.3051 18.2903C16.5792 18.3792 17.4089 17.8012 18.683 17.8012C19.883 17.6975 21.4683 17.8309 21.172 19.4314C21.172 21.3136 17.4385 26.4561 21.0386 26.1004C22.1794 25.9967 23.6165 26.2931 24.5795 25.5521C26.3722 23.5366 26.2241 20.1576 28.0908 18.1569C29.8094 16.9416 33.6614 18.8831 33.8688 15.8301L33.8392 15.6819V15.7116ZM11.7346 18.6015C11.542 18.9424 11.0382 18.809 10.7419 18.8979C9.98633 18.8238 9.31964 18.6756 8.68257 18.4533C8.41589 18.3644 8.11959 18.2162 8.14922 17.8309C8.17885 17.49 8.35664 17.2973 8.77147 17.1788C9.08259 17.0898 9.42335 17.0454 9.71965 17.0454C10.1197 17.0454 10.5049 17.2529 10.9049 17.3714C11.053 17.4159 11.1568 17.5196 11.2308 17.653C11.4086 17.9642 11.9716 18.1569 11.7346 18.5867V18.6015Z" fill="black"/>
<path d="M51.8251 15.3707C51.6029 14.5112 49.9732 14.689 49.1584 14.6742C48.1805 14.6742 47.0249 14.5408 46.4027 15.1484C45.3508 16.497 45.01 18.3199 44.3433 19.876C43.8841 21.195 43.2766 22.5288 41.9581 22.9586C40.6839 23.4773 38.3135 23.3291 38.3875 21.521C38.6098 19.55 39.9728 17.5937 40.1506 15.6078C40.1209 15.3855 40.0469 15.1632 39.8987 14.9854C38.8172 14.3926 37.4838 14.7779 36.1652 14.7483C35.9134 14.7631 35.617 14.8224 35.3652 14.8965C34.3281 15.2966 34.1059 16.6008 33.6762 17.5641C33.128 19.4907 31.7206 21.4469 32.2836 23.4625C34.1948 26.7673 40.4469 26.0115 43.6766 25.7299C46.4768 25.2853 48.7139 24.1442 49.8547 21.4618C50.4769 19.6537 51.6325 17.1788 51.8696 15.4745L51.8399 15.3411L51.8251 15.3707Z" fill="black"/>
<path d="M59.1291 17.7716C61.5441 16.912 64.522 17.9791 66.9961 17.0454C67.648 16.6897 68.2406 15.4745 67.6332 14.9261C66.0924 14.1555 64.0627 14.6001 62.3737 14.526C59.6329 14.6742 56.2994 14.1851 53.6622 14.8076C52.9807 15.2077 52.7437 16.0376 52.5363 16.7638C51.8399 19.3277 51.2621 22.2176 50.2843 24.737C49.8399 25.9967 51.0844 26.2042 52.0474 26.1004C53.4104 25.9819 55.3068 26.5599 56.1068 25.1223C56.6253 24.2776 56.7587 23.1068 57.618 22.514C59.5143 21.6544 61.6774 22.2472 63.7071 21.9656C64.8331 21.9656 65.7665 20.4836 65.0109 19.5648C64.1071 18.3644 57.855 20.3799 59.0403 17.8753L59.1588 17.7864L59.1291 17.7716Z" fill="black"/>
<path d="M83.5154 15.0891C83.1302 14.5408 82.182 14.5704 81.5153 14.5112C77.767 14.4519 74.0483 14.5112 70.2852 14.5408C67.8554 14.6297 67.8851 19.0757 67.2036 20.9431C66.1813 25.2705 63.8997 26.3968 69.9296 26.0708C71.7815 26.219 72.063 24.322 72.7594 23.0771C73.0853 22.5436 73.6483 22.2324 74.2705 22.1435C76.1076 21.9064 77.9299 22.1731 79.7967 21.8767C81.2338 21.5359 81.4856 19.1202 79.6633 19.1498C78.2559 19.0313 76.7299 19.3573 75.3669 19.1202C74.7298 18.9868 74.315 18.394 74.715 17.9494C74.9372 17.6678 75.3224 17.5641 75.678 17.5048C77.6188 17.4011 79.6041 17.4455 81.6042 17.3418C82.7153 17.3566 83.8117 16.334 83.5894 15.2077L83.5302 15.0891H83.5154Z" fill="black"/>
</svg>
