<svg width="30" height="30" viewBox="0 0 30 30" fill="none" xmlns="http://www.w3.org/2000/svg">
<g clip-path="url(#clip0_1029_5)">
<path d="M22.9688 0H7.03125C3.148 0 0 3.148 0 7.03125V22.9688C0 26.852 3.148 30 7.03125 30H22.9688C26.852 30 30 26.852 30 22.9688V7.03125C30 3.148 26.852 0 22.9688 0Z" fill="#F4F2ED"/>
<path d="M4.87922 23.7936H8.60789V14.7382L3.28125 10.7433V22.1957C3.28125 23.0798 3.99773 23.7936 4.87922 23.7936Z" fill="#4285F4"/>
<path d="M21.3921 23.7936H25.1209C26.0051 23.7936 26.7188 23.0771 26.7188 22.1957V10.7432L21.3921 14.7382" fill="#34A853"/>
<path d="M21.3921 7.81351V14.7382L26.7188 10.7433V8.61237C26.7188 6.63624 24.463 5.5096 22.8837 6.69483" fill="#FBBC04"/>
<path d="M8.60791 14.7382V7.81359L14.9999 12.6074L21.3919 7.81335V14.7381L14.9999 19.5322" fill="#EA4335"/>
<path d="M3.28125 8.61243V10.7431L8.60789 14.7382V7.81357L7.11645 6.69489C5.53441 5.50966 3.28125 6.6363 3.28125 8.61243Z" fill="#C5221F"/>
</g>
<defs>
<clipPath id="clip0_1029_5">
<rect width="30" height="30" fill="white"/>
</clipPath>
</defs>
</svg>
