<svg width="145" height="215" fill="none" xmlns="http://www.w3.org/2000/svg"><path d="M144.982 30.283c-1.664-4.228-5.445-2.854-5.988 1.25-2.697 12.05-4.25 24.322-6.446 36.472-1.448 10.845-8.698 23.102-17.231 29.835-3.094.668-4.639 1.006-5.415 4.4-4.01 11.232-6.19 5.202-8.691 11.174-3.675 9.761-3.806 1.887-8.551 4.411-2.53 4.519-4.458 9.462-8.482 12.994-1.368 1.332-3.099 2.78-5.064 2.936-3.53-.757-1.068-7.423.015-9.616 5.663-12.965 13.875-29.58 6.933-43.453-4-6.963-12.988-8.338-20.15-6.195a25.59 25.59 0 00-5.257 2.076c-1.149.363-2.849 2.383-3.896 1.022-.136-9.21 1.259-18.656 2.338-27.848.338-1.746 1.466-3.123 2.64-4.394 9.644-10.706 19.386-21.308 29.281-31.774 2.3-2.776 5.051-5.599 5.836-9.225.734-2.707-2.9-5.947-4.98-3.457-.431.909-.03 2.26-.497 3.254-1.432 2.695-3.544 5.02-5.412 7.415-8.151 8.06-15.773 16.658-23.596 25.056-.588.687-1.666 1.203-1.609-.107-.003-3.668 2.926-9.44.776-12.506-.89-1.052-3.009-1.479-4.142-.638-1.134.995-1.216 2.717-1.552 4.108-.526 2.96-.805 5.972-1.195 8.95-.13 1.937-1.068 2.042-2.407.805-4.964-3.985-8.538 3.242-9.269 7.485-1.178 4.684-1.512 9.52-2.247 14.275-.441 2.053-1.732 3.741-3.07 5.317-5.924 7.142-11.846 14.287-17.49 21.656-6.27 8.272-12.174 16.858-17.181 25.969-1.08 2.414-3.537 4.904-2.87 7.684 1.044 2.714 4.247 1.732 5.276-.471 8.9-16.395 20.115-31.242 31.938-45.59 2.262-2.22.902 3.444.938 4.44-.786 6.667-1.06 13.367-1.382 20.069.107 3.222-1.933 5.76-3.468 8.398-3.039 5.231-5.894 10.662-7.232 16.608-.591 3.068-.642 9.244 3.574 9.283 2.76-.982 1.107-4.831 1.753-7.028.81-3.898 2.054-8.037 4.34-11.296 1.873-1.608.878 10.713 1.225 12.007.422 13.348.335 26.804-2.214 39.956-.533 2.524-3.535 2.851-5.658 3.133-3.62.373-6.569-2.177-9.65-3.519-3.083.344 1.422 4.943 2.523 5.623a13.42 13.42 0 006.256 2.116c1.369.279 3.38-.56 4.346.731-1.462 11.667-8.525 22.394-15.448 31.76-1.279 2.136-6.839 7.301-5.06 9.107 1.464.416 2.76-1.474 3.85-2.28 10.541-9.936 17.177-23.146 21.514-36.865.637-2.388 1.1-5.063 3.697-6.042 2.543-1.389 4.54-3.587 6.966-5.147 2.254-1.094 1.7 2.382 1.826 3.664.898 13.504-.855 27.136-.535 40.379 7.124 9.252 5.741-44.017 5.243-47.333-.315-2.767 1.842-4.626 3.492-6.5 5.001-5.607 9.425-11.705 13.675-17.876 2.017-1.813 2.993 3.753 8.604 2.323 6.34-1.224 9.44-7.743 13.614-11.995.955-.849 2.309-.7 3.503-.932 3.952-.573 5.497-4.551 7.256-7.612 1.254-1.981 3.857-2.521 4.935-4.701 2.471-3.181 3.371-7.913 7.168-9.866 4.508-2.632 6.788-7.796 10.616-11.053.706.756-.097 2.602-.12 3.688-2.656 15.884-4.941 31.823-8.311 47.577-3.468 22.598-13.124 43.254-22.136 64.022-1.636 2.753.923 6.039 3.793 3.905 1.438-1.424 1.643-3.616 2.37-5.431 3.091-8.057 6.727-15.913 10.007-23.899 12.933-31.687 15.488-66.37 21.938-99.73.942-6.87 3.464-13.324 5.148-20.012 1.897-10.855 4.896-21.87 4.709-32.918l-.008-.029-.002.005zm-94.62 66.464c-1.63 19.953-.536 40.207-1.155 60.047-1.526 2.777-4.544 4.402-6.788 6.521-1.109.872-2.458 2.049-2.186-.461.11-1.79.368-3.579.562-5.372 2.277-16.66 1.383-33.518.973-50.257-.21-2.614.605-5.136 2.375-7.066 1.601-1.597 6.985-10.998 6.222-3.443v.033l-.003-.002zm2.6-37.84c-.352 7.487-1.078 14.91-1.61 22.375-.075 1.58-.513 3.07-1.609 4.238-1.712 1.847-3.485 3.668-5.198 5.515-.459.466-1.265 1.448-1.91 1.08-.418-.299-.381-1.198-.344-1.748.099-1.489.199-3.01.304-4.506.29-4.435.82-8.9 1.402-13.336.32-2.305.584-4.624.96-6.923.175-1.066.62-1.973 1.272-2.81 1.606-2.12 3.432-4.007 5.497-5.789.228-.198.556-.451.8-.492.695-.117.407 1.764.438 2.365v.032l-.002-.001zm-1.096-10.348c-.869 1.07-1.882 2.169-2.8 3.206-2.226 2.222-1.464-1.15-1.17-2.381.236-.976.535-1.94.82-2.909.108-.354.242-.798.554-.99.455-.256.927.023 1.485.154.252.067.509.116.772.146 2.526.036 1.388 1.56.36 2.748l-.02.026zm21.41 76.183c-4.036 7.649-8.583 15.012-14.196 21.602-1.119 1.303-2.112 2.758-3.327 3.939-1.529 1.294-1.232-1.676-1.319-2.527-.486-19.117.115-38.225 1.099-57.323.13-1.44.412-2.941 1.554-3.913 1.186-1.024 2.506-1.956 3.783-2.85 4.468-3.054 10.152-5.667 15.61-4.092 2.133.652 4.273 1.74 5.375 3.759 5.561 10.096-3.407 31.796-8.563 41.375l-.014.03h-.002zm62.323 6.7c-.805.034-1.446-.349-1.913-1.01-1.211-1.715-.647-5.221 1.095-6.484.992-.719 2.098-1.145 3.316-.518 1.28.657 1.803 1.784 1.865 2.91.074 2.489-2.185 5.009-4.363 5.102z" fill="#000"/></svg>