<svg width="145" height="215" viewBox="0 0 145 215" fill="none" xmlns="http://www.w3.org/2000/svg">
<path id="Vector" d="M144.982 30.2828C143.318 26.0546 139.537 27.4294 138.994 31.5327C136.297 43.5828 134.744 55.8554 132.548 68.0046C131.1 78.8504 123.85 91.1068 115.317 97.8396C112.223 98.5083 110.678 98.8459 109.902 102.24C105.892 113.472 103.712 107.442 101.211 113.414C97.5363 123.175 97.4054 115.301 92.6597 117.825C90.1294 122.344 88.2017 127.287 84.1783 130.819C82.8097 132.151 81.0791 133.599 79.1142 133.755C75.5837 132.998 78.0462 126.332 79.1288 124.139C84.7923 111.174 93.0039 94.5592 86.0623 80.6862C82.0615 73.7229 73.0743 72.3481 65.9129 74.4907C64.1097 74.9793 62.3532 75.6707 60.655 76.5667C59.5062 76.9303 57.8063 78.9495 56.7592 77.5893C56.6235 68.3796 58.018 58.9329 59.0973 49.741C59.4351 47.9945 60.5629 46.6181 61.7376 45.3472C71.3809 34.641 81.1227 24.0386 91.0181 13.5726C93.3174 10.797 96.0691 7.97439 96.8544 4.34829C97.588 1.64089 93.954 -1.5989 91.8745 0.891001C91.443 1.79996 91.8437 3.15041 91.3768 4.1454C89.9451 6.83981 87.8333 9.16577 85.9654 11.5599C77.8135 19.6204 70.1916 28.2182 62.3694 36.6163C61.7812 37.3029 60.7035 37.8191 60.76 36.5092C60.7568 32.8409 63.6863 27.069 61.5356 24.0029C60.6469 22.9511 58.527 22.5242 57.3943 23.365C56.26 24.36 56.1775 26.0821 55.8415 27.4732C55.3163 30.4338 55.0368 33.4447 54.6474 36.4232C54.5165 38.3596 53.5793 38.4651 52.2398 37.2283C47.2759 33.2434 43.7017 40.4697 42.9714 44.7126C41.7934 49.3969 41.459 54.2323 40.7238 58.9881C40.2826 61.0413 38.9916 62.7294 37.6537 64.3055C31.73 71.4473 25.808 78.5924 20.1639 85.9614C13.8945 94.2329 7.99028 102.819 2.98283 111.93C1.90345 114.344 -0.554223 116.834 0.113115 119.614C1.15694 122.328 4.35951 121.346 5.3888 119.143C14.2888 102.748 25.5043 87.9011 37.3273 73.5525C39.5894 71.3321 38.2289 76.9968 38.2645 77.9934C37.4792 84.6597 37.2045 91.36 36.8829 98.0619C36.9896 101.284 34.9504 103.822 33.4154 106.46C30.376 111.691 27.5208 117.122 26.1829 123.068C25.5915 126.136 25.5414 132.312 29.7571 132.351C32.517 131.369 30.864 127.52 31.5103 125.323C32.3198 121.425 33.564 117.286 35.8504 114.027C37.7232 112.419 36.7278 124.74 37.0752 126.034C37.4969 139.382 37.4097 152.838 34.8615 165.99C34.3283 168.514 31.3261 168.841 29.2029 169.123C25.5834 169.496 22.6345 166.946 19.5532 165.604C16.4702 165.948 20.9751 170.547 22.0755 171.227C23.9353 172.444 26.136 173.174 28.332 173.343C29.7006 173.622 31.7123 172.783 32.6785 174.074C31.2162 185.741 24.1534 196.468 17.2296 205.834C15.9515 207.97 10.3914 213.135 12.1704 214.941C13.6344 215.357 14.9303 213.467 16.0193 212.661C26.561 202.725 33.1972 189.515 37.5341 175.796C38.1707 173.408 38.6345 170.733 41.2311 169.754C43.7744 168.365 45.7716 166.167 48.197 164.607C50.451 163.513 49.8968 166.989 50.0228 168.271C50.9212 181.775 49.1681 195.407 49.488 208.65C56.6122 217.902 55.2291 164.633 54.7314 161.317C54.4163 158.55 56.5734 156.691 58.2232 154.817C63.2242 149.21 67.6483 143.112 71.8979 136.941C73.9145 135.128 74.8905 140.694 80.5022 139.264C86.8427 138.04 89.9419 131.521 94.1156 127.269C95.0706 126.42 96.4246 126.569 97.6187 126.337C101.571 125.764 103.116 121.786 104.875 118.725C106.129 116.744 108.732 116.204 109.81 114.024C112.281 110.843 113.181 106.111 116.978 104.158C121.486 101.526 123.766 96.3625 127.594 93.1049C128.3 93.8613 127.497 95.7068 127.474 96.7927C124.818 112.677 122.533 128.616 119.163 144.37C115.695 166.968 106.039 187.624 97.0273 208.392C95.3905 211.145 97.95 214.431 100.82 212.297C102.258 210.873 102.463 208.681 103.19 206.866C106.281 198.809 109.917 190.953 113.197 182.967C126.13 151.28 128.685 116.597 135.135 83.2378C136.077 76.367 138.599 69.9134 140.283 63.2245C142.18 52.3705 145.179 41.3543 144.992 30.3072L144.984 30.278L144.982 30.2828ZM50.3622 96.7472C48.7318 116.7 49.8257 136.954 49.2069 156.794C47.6815 159.571 44.6631 161.196 42.4188 163.315C41.3103 164.187 39.9611 165.364 40.2325 162.854C40.3424 161.064 40.601 159.275 40.7949 157.482C43.0716 140.822 42.178 123.964 41.7676 107.225C41.5575 104.611 42.3735 102.089 44.1428 100.159C45.7441 98.5619 51.1281 89.1606 50.3654 96.7164V96.7488L50.3622 96.7472ZM52.962 58.9069C52.6098 66.3945 51.8843 73.8171 51.3527 81.2819C51.2767 82.8612 50.8388 84.3513 49.7433 85.5199C48.0305 87.3671 46.258 89.1882 44.5452 91.0354C44.0863 91.5012 43.28 92.4832 42.6353 92.1148C42.2168 91.8161 42.2539 90.9169 42.2911 90.3666C42.3897 88.8782 42.4898 87.3573 42.5949 85.8608C42.8841 81.4264 43.4141 76.9611 43.9974 72.5251C44.3174 70.2202 44.5807 67.9007 44.9572 65.6024C45.1317 64.536 45.5761 63.6286 46.2289 62.7911C47.835 60.6729 49.6609 58.7852 51.7259 57.003C51.9538 56.805 52.2818 56.5517 52.5258 56.5112C53.2206 56.3943 52.933 58.2755 52.9637 58.8761V58.9085L52.962 58.9069ZM51.8665 48.5594C50.9972 49.629 49.9841 50.7279 49.0663 51.7651C46.8397 53.9872 47.6023 50.6159 47.8964 49.384C48.1323 48.4084 48.4313 47.4443 48.7156 46.4753C48.8239 46.1214 48.958 45.6767 49.2699 45.4852C49.7255 45.2287 50.1974 45.5079 50.7548 45.6394C51.0069 45.7059 51.2638 45.7546 51.5272 45.7854C54.0527 45.8212 52.9152 47.3453 51.8875 48.5334L51.8665 48.5594ZM73.2763 124.742C69.2399 132.391 64.693 139.754 59.0796 146.344C57.9614 147.647 56.9677 149.102 55.7526 150.283C54.224 151.577 54.5213 148.607 54.4341 147.756C53.9477 128.639 54.5488 109.531 55.5328 90.4332C55.6637 88.9935 55.9449 87.492 57.0873 86.5198C58.2733 85.4956 59.5934 84.5639 60.8699 83.6696C65.3377 80.6164 71.0222 78.0032 76.4804 79.5776C78.6133 80.2301 80.7527 81.3176 81.8547 83.3368C87.4164 93.4327 78.4485 115.133 73.2924 124.712L73.2779 124.742H73.2763ZM135.599 131.442C134.794 131.476 134.153 131.093 133.686 130.432C132.475 128.717 133.039 125.211 134.781 123.948C135.773 123.229 136.879 122.803 138.097 123.43C139.377 124.087 139.9 125.214 139.962 126.34C140.036 128.829 137.777 131.349 135.599 131.442Z" fill="black"/>
</svg>
