<svg width="24" height="24" viewBox="0 0 24 24" fill="none" xmlns="http://www.w3.org/2000/svg">
<path fill-rule="evenodd" clip-rule="evenodd" d="M15.4178 5.64301C15.2799 5.42265 15.0767 5.25077 14.8365 5.15129C14.5964 5.05181 14.3311 5.02969 14.0778 5.08801L12.2798 5.50101C12.0955 5.54336 11.9041 5.54336 11.7198 5.50101L9.92181 5.08801C9.66847 5.02969 9.40326 5.05181 9.16308 5.15129C8.92291 5.25077 8.71972 5.42265 8.58181 5.64301L7.60181 7.20701C7.50181 7.36701 7.36681 7.50201 7.20681 7.60301L5.64281 8.58301C5.42283 8.7208 5.2512 8.92366 5.15174 9.16342C5.05229 9.40319 5.02994 9.66797 5.08781 9.92101L5.50081 11.721C5.54301 11.905 5.54301 12.0961 5.50081 12.28L5.08781 14.079C5.02972 14.3322 5.05195 14.5972 5.15142 14.8372C5.25088 15.0771 5.42264 15.2802 5.64281 15.418L7.20681 16.398C7.36681 16.498 7.50181 16.633 7.60281 16.793L8.58281 18.357C8.86481 18.808 9.40281 19.031 9.92181 18.912L11.7198 18.499C11.9041 18.4567 12.0955 18.4567 12.2798 18.499L14.0788 18.912C14.332 18.9701 14.597 18.9479 14.837 18.8484C15.0769 18.7489 15.28 18.5772 15.4178 18.357L16.3978 16.793C16.4978 16.633 16.6328 16.498 16.7928 16.398L18.3578 15.418C18.578 15.28 18.7497 15.0767 18.849 14.8365C18.9483 14.5964 18.9702 14.3312 18.9118 14.078L18.4998 12.28C18.4575 12.0957 18.4575 11.9043 18.4998 11.72L18.9128 9.92101C18.971 9.66792 18.9489 9.403 18.8496 9.16304C18.7504 8.92308 18.5788 8.72 18.3588 8.58201L16.7938 7.60201C16.634 7.50183 16.499 7.36679 16.3988 7.20701L15.4178 5.64301ZM14.9148 9.77001C14.9767 9.65628 14.992 9.52299 14.9576 9.39818C14.9231 9.27338 14.8416 9.16679 14.7302 9.10085C14.6188 9.03491 14.4862 9.01476 14.3602 9.04463C14.2342 9.0745 14.1248 9.15206 14.0548 9.26101L11.4398 13.687L9.86081 12.175C9.81397 12.1269 9.75791 12.0887 9.696 12.0628C9.63408 12.0368 9.56757 12.0236 9.50043 12.0239C9.43329 12.0242 9.3669 12.038 9.30522 12.0645C9.24353 12.091 9.18781 12.1296 9.14139 12.1781C9.09497 12.2267 9.05879 12.284 9.03501 12.3468C9.01124 12.4096 9.00035 12.4765 9.003 12.5436C9.00566 12.6107 9.02179 12.6766 9.05045 12.7373C9.07911 12.798 9.1197 12.8523 9.16981 12.897L11.2038 14.846C11.2582 14.8981 11.3237 14.9371 11.3954 14.9603C11.4671 14.9835 11.543 14.9902 11.6177 14.9799C11.6923 14.9697 11.7636 14.9426 11.8263 14.9009C11.889 14.8592 11.9415 14.8039 11.9798 14.739L14.9148 9.77001Z" fill="#4C7FFF"/>
</svg>
