<svg width="87" height="21" viewBox="0 0 87 21" fill="none" xmlns="http://www.w3.org/2000/svg">
<path d="M42.8712 0.920989C42.709 0.422485 42.002 0.318146 41.5037 0.29496C38.1079 0.190622 34.9092 0.202215 31.5367 0.32974C31.2701 0.352926 31.0152 0.399298 30.7834 0.492043C30.0532 0.735499 29.9142 1.59339 29.3926 1.39631C26.6691 -0.19195 22.7055 0.318146 19.6922 0.0515048C18.5333 0.0630979 16.9687 -0.273102 16.4935 1.08329C15.7866 2.60199 15.3114 5.51186 14.4885 6.89144C14.2567 7.01897 14.0481 6.02196 13.8511 5.31478C13.6657 4.61919 13.4802 3.92361 13.2832 3.22802C12.8428 1.48905 12.669 0.0978773 10.5133 0.271774C9.35438 0.271774 7.97523 0.213808 7.08284 1.10648C4.97355 3.18165 2.69041 5.4423 0.557943 7.57544C-1.11095 9.30281 1.36921 9.08254 2.702 9.03617C3.93049 9.03617 4.73017 8.07394 5.88912 7.87686C7.1176 7.78411 8.72855 7.56384 9.74842 8.25943C10.1541 8.53767 10.5713 8.83909 11.0696 8.92024C13.121 9.09413 15.2071 9.01298 17.3396 8.79271C18.626 8.60722 18.6839 7.14649 19.4257 6.30019C19.7733 5.92921 20.2717 5.75532 20.7932 5.75532C23.9919 5.72054 22.323 8.3058 24.3396 8.83909C25.9158 8.9898 28.3496 9.69698 28.0135 7.18127C27.9671 6.41612 27.6774 5.47708 28.2916 4.86265C28.79 4.38733 29.4738 3.98157 29.7519 3.33236C30.0417 2.67155 30.4705 2.52084 31.1079 2.56721C31.9192 2.53243 33.0433 2.63677 32.9854 3.70334C33.1592 5.02495 30.4473 8.72315 32.4755 9.03617C33.5069 9.07095 34.7818 9.23325 35.6626 8.61882C36.8447 7.30879 37.0185 5.31478 37.8298 3.74971C38.5947 1.31515 42.6974 3.74971 42.8944 1.06011L42.8712 0.944175V0.920989ZM9.38915 5.03654C9.3312 5.16407 9.28484 5.29159 9.2269 5.41912C9.09941 5.66257 8.8908 5.76691 8.60106 5.74372C8.48517 5.74372 8.36927 5.74372 8.26497 5.70894C7.99841 5.63939 7.80139 5.30319 7.91728 5.05973C8.02159 4.82787 8.13748 4.6076 8.35768 4.45689C8.78649 4.17865 8.96034 4.20184 9.29643 4.59601C9.41233 4.73512 9.47027 4.86265 9.38915 5.03654ZM24.2933 3.65696C23.934 3.86564 23.3545 3.92361 22.9141 3.88883C22.2303 3.91201 21.6045 4.00476 20.9671 3.69174C20.2949 3.34395 20.6773 2.27738 21.3495 2.23101C21.8015 2.09189 22.3346 2.11508 22.775 2.19623C23.2618 2.21942 23.8413 2.23101 24.2701 2.46287C24.6409 2.71792 24.78 3.29758 24.386 3.61059L24.3048 3.65696H24.2933Z" fill="black"/>
<path d="M57.1263 0.445671C55.527 0.260181 53.2207 -0.319475 52.5253 1.55861C52.1081 2.65996 51.0882 3.18165 49.964 3.11209C49.3382 3.13527 48.4574 3.07731 48.1792 2.46287C47.8779 1.87162 48.3763 1.00214 48.0286 0.538416C47.7388 0.132657 47.1478 0.121064 46.6842 0.0978773C45.5832 0.0978773 44.1229 -0.0412401 43.6477 1.18763C42.8712 3.50625 42.1295 5.7901 41.411 8.13191C41.3182 9.3144 42.8944 9.01298 43.7057 9.05935C46.8928 9.33759 45.5252 6.43931 47.5998 5.54664C48.4806 5.34956 50.1495 5.09451 50.4276 6.23063C50.5783 6.92622 49.964 7.91164 50.3581 8.43333C50.9259 9.08254 52.1544 8.78112 52.9773 8.8159C54.0204 8.86227 54.7273 8.3174 55.0518 7.37835C55.7588 5.68576 56.5353 3.92361 57.2306 2.28898C57.4508 1.76729 57.8681 0.863023 57.2306 0.526823L57.1147 0.48045L57.1263 0.445671Z" fill="black"/>
<path d="M72.5404 0.642754C72.297 -0.0180539 71.138 0.0978773 70.489 0.074691C69.7009 0.074691 68.8549 0.0167255 68.345 0.492043C67.4758 1.48905 67.2324 2.94978 66.6993 4.15547C66.34 5.18725 65.8185 6.20745 64.8218 6.54365C63.7787 6.99578 61.9012 6.76392 62.0635 5.28C62.7704 1.77888 65.5519 -0.783199 59.676 0.29496C58.8068 0.654347 58.5866 1.79047 58.2158 2.64836C55.9326 7.58703 57.5551 8.68838 62.5734 8.93183C69.4576 9.09413 71.0685 7.14649 72.5751 0.735499L72.552 0.63116L72.5404 0.642754Z" fill="black"/>
<path d="M86.5405 1.62817C86.1233 1.08329 85.4048 0.793464 84.7326 0.631161C82.2292 0.132657 79.1348 0.14425 76.6778 0.0283186C75.6464 0.0978773 74.2788 -0.319475 73.6414 0.689126C72.691 2.78748 72.1927 5.19885 71.3814 7.49429C71.1265 8.1435 71.2655 8.94342 72.0884 8.94342C77.4659 9.45352 74.4295 5.52345 78.254 5.76691C79.1 5.84806 79.8765 6.26541 80.062 7.10012C80.1895 7.56384 80.2242 8.15509 80.5719 8.4797C81.5454 9.16369 83.0405 8.9898 84.211 8.9898C85.1034 8.83909 85.115 7.74933 85.0455 7.01897C84.9064 6.13789 84.7325 5.04814 85.6597 4.54963C86.5985 4.00476 87.3981 2.76429 86.6332 1.73251L86.5521 1.61658L86.5405 1.62817ZM81.2905 3.65696C80.9312 3.86564 80.3517 3.92361 79.9113 3.88883C79.2275 3.91201 78.6017 4.00476 77.9643 3.69174C77.2921 3.34395 77.6745 2.27738 78.3467 2.23101C78.7987 2.09189 79.3318 2.11508 79.7722 2.19623C80.259 2.21942 80.8385 2.23101 81.2673 2.46287C81.6381 2.71792 81.7772 3.29758 81.3832 3.61059L81.3021 3.65696H81.2905Z" fill="black"/>
<path d="M37.471 11.8765C37.2276 11.1925 36.1962 11.3084 35.5819 11.262C32.4296 11.1925 29.5322 11.2157 26.403 11.2968C26.0322 11.32 25.6497 11.3316 25.302 11.4359C24.4792 11.7026 24.456 12.6764 23.6679 12.062C21.0371 10.636 14.8251 10.1491 12.6926 12.8735C11.7075 14.3922 13.3532 15.6558 14.7208 16.0848C15.8913 16.4094 17.34 16.0848 18.3483 16.8731C19.2291 18.1484 16.6099 18.1599 15.9261 17.731C15.2887 17.3832 14.8599 16.8036 14.1529 16.8963C13.2489 17.105 11.9161 16.8383 11.1744 17.4296C10.6065 18.0904 11.5569 18.9367 12.1479 19.2265C14.4426 20.2931 17.0735 20.0496 19.5884 19.7946C22.8566 19.6207 26.0669 17.1166 21.9411 14.9487C20.3881 14.1255 22.2076 13.8357 22.9725 13.8937C23.9692 13.9632 24.6182 13.5111 25.6149 13.5111C26.5537 13.43 27.7938 13.5343 27.562 14.7864C27.562 16.2587 24.6414 20.2815 27.4577 20.0033C28.3501 19.9221 29.4742 20.154 30.2276 19.5743C31.6299 17.9976 31.514 15.3544 32.9743 13.7893C34.3187 12.8387 37.3319 14.3574 37.4942 11.9692L37.471 11.8533V11.8765ZM20.1795 14.1371C20.0288 14.4038 19.6348 14.2994 19.403 14.369C18.8119 14.311 18.2904 14.1951 17.792 14.0212C17.5834 13.9516 17.3516 13.8357 17.3748 13.5343C17.398 13.2677 17.5371 13.1169 17.8616 13.0242C18.1049 12.9546 18.3715 12.9199 18.6033 12.9199C18.9162 12.9199 19.2175 13.0822 19.5304 13.1749C19.6463 13.2097 19.7275 13.2908 19.7854 13.3952C19.9245 13.6386 20.3649 13.7893 20.1795 14.1255V14.1371Z" fill="black"/>
<path d="M51.5407 11.6098C51.3668 10.9374 50.092 11.0766 49.4546 11.065C48.6896 11.065 47.7857 10.9606 47.2989 11.4359C46.4761 12.4909 46.2095 13.9169 45.688 15.1341C45.3287 16.1659 44.8535 17.2093 43.8221 17.5455C42.8254 17.9513 40.971 17.8353 41.029 16.421C41.2028 14.8791 42.2691 13.3488 42.4081 11.7953C42.385 11.6214 42.327 11.4475 42.2111 11.3084C41.3651 10.8447 40.322 11.1461 39.2906 11.1229C39.0935 11.1345 38.8617 11.1809 38.6647 11.2389C37.8535 11.5519 37.6796 12.5721 37.3435 13.3256C36.9147 14.8327 35.8137 16.363 36.2541 17.9397C37.7492 20.5249 42.6399 19.9337 45.1664 19.7134C47.3569 19.3656 49.1069 18.473 49.9993 16.3746C50.486 14.9603 51.39 13.0242 51.5754 11.691L51.5523 11.5867L51.5407 11.6098Z" fill="black"/>
<path d="M57.2543 13.4879C59.1434 12.8155 61.4729 13.6502 63.4083 12.9199C63.9183 12.6416 64.3818 11.691 63.9067 11.262C62.7014 10.6592 61.1136 11.007 59.7924 10.949C57.6483 11.065 55.0407 10.6824 52.9778 11.1693C52.4446 11.4823 52.2592 12.1315 52.097 12.6996C51.5523 14.7052 51.1003 16.9659 50.3354 18.9367C49.9877 19.9221 50.9612 20.0844 51.7145 20.0033C52.7807 19.9105 54.2642 20.3626 54.89 19.2381C55.2957 18.5773 55.4 17.6614 56.0722 17.1977C57.5556 16.5253 59.2477 16.989 60.8355 16.7688C61.7163 16.7688 62.4464 15.6095 61.8553 14.8907C61.1484 13.9517 56.2576 15.5283 57.1848 13.5691L57.2775 13.4995L57.2543 13.4879Z" fill="black"/>
<path d="M76.3306 11.3896C76.0293 10.9606 75.2876 10.9838 74.766 10.9374C71.8339 10.8911 68.9249 10.9374 65.9812 10.9606C64.0805 11.0302 64.1037 14.5081 63.5706 15.9689C62.7709 19.354 60.9861 20.2351 65.703 19.9801C67.1517 20.096 67.3719 18.6121 67.9166 17.6383C68.1716 17.2209 68.612 16.9775 69.0988 16.9079C70.5359 16.7224 71.9614 16.9311 73.4217 16.6992C74.5458 16.4326 74.7429 14.5429 73.3174 14.5661C72.2164 14.4733 71.0226 14.7284 69.9564 14.5429C69.458 14.4386 69.1335 13.9748 69.4465 13.627C69.6203 13.4068 69.9216 13.3256 70.1998 13.2792C71.718 13.1981 73.271 13.2329 74.8356 13.1517C75.7048 13.1633 76.5624 12.3634 76.3886 11.4823L76.3422 11.3896H76.3306Z" fill="black"/>
</svg>
